<?xml version="1.0" encoding="UTF-8"?>
<svg xmlns="http://www.w3.org/2000/svg" xmlns:xlink="http://www.w3.org/1999/xlink" width="375pt" height="374.999991pt" viewBox="0 0 375 374.999991" version="1.2">
<g id="surface1">
<path style=" stroke:none;fill-rule:nonzero;fill:rgb(0%,0%,0%);fill-opacity:1;" d="M 152.34375 117.1875 L 128.90625 117.1875 C 122.460938 117.1875 117.1875 122.4375 117.1875 128.90625 L 117.1875 222.65625 C 117.1875 229.125 122.460938 234.375 128.90625 234.375 L 152.34375 234.375 C 158.789062 234.375 164.0625 229.125 164.0625 222.65625 L 164.0625 128.90625 C 164.0625 122.4375 158.789062 117.1875 152.34375 117.1875 Z M 152.34375 117.1875 "/>
<path style=" stroke:none;fill-rule:nonzero;fill:rgb(0%,0%,0%);fill-opacity:1;" d="M 316.40625 0 L 58.59375 0 C 26.273438 0 0 26.296875 0 58.59375 L 0 316.40625 C 0 348.703125 26.273438 375 58.59375 375 L 316.40625 375 C 348.726562 375 375 348.703125 375 316.40625 L 375 58.59375 C 375 26.296875 348.726562 0 316.40625 0 Z M 187.5 222.65625 C 187.5 242.039062 171.726562 257.8125 152.34375 257.8125 L 128.90625 257.8125 C 109.523438 257.8125 93.75 242.039062 93.75 222.65625 L 93.75 128.90625 C 93.75 109.523438 109.523438 93.75 128.90625 93.75 L 152.34375 93.75 C 171.726562 93.75 187.5 109.523438 187.5 128.90625 Z M 281.25 234.375 C 281.25 247.289062 270.75 257.8125 257.8125 257.8125 L 234.375 257.8125 L 234.375 281.25 L 269.53125 281.25 C 276 281.25 281.25 286.5 281.25 292.96875 C 281.25 299.4375 276 304.6875 269.53125 304.6875 L 234.375 304.6875 C 221.4375 304.6875 210.9375 294.164062 210.9375 281.25 L 210.9375 257.8125 C 210.9375 244.898438 221.4375 234.375 234.375 234.375 L 257.8125 234.375 L 257.8125 210.9375 L 222.65625 210.9375 C 216.1875 210.9375 210.9375 205.6875 210.9375 199.21875 C 210.9375 192.75 216.1875 187.5 222.65625 187.5 L 257.8125 187.5 C 270.75 187.5 281.25 198.023438 281.25 210.9375 Z M 281.25 234.375 "/>
</g>
</svg>
